<?xml version="1.0" encoding="utf-8" ?>
<svg xmlns="http://www.w3.org/2000/svg" xmlns:xlink="http://www.w3.org/1999/xlink" width="24" height="19.2" viewBox="0 0 24 19.2">
	<path transform="matrix(1 0 0 1 0 9.72748e-05)" d="M19.8 16.8L4.2 16.8C3.87 16.8 3.6 17.07 3.6 17.4L3.6 18.6C3.6 18.93 3.87 19.2 4.2 19.2L19.8 19.2C20.13 19.2 20.4 18.93 20.4 18.6L20.4 17.4C20.4 17.07 20.13 16.8 19.8 16.8ZM22.2 4.8C21.2063 4.8 20.4 5.60625 20.4 6.6C20.4 6.86625 20.46 7.11375 20.565 7.3425L17.85 8.97C17.2725 9.315 16.5263 9.12 16.1925 8.535L13.1363 3.1875C13.5375 2.8575 13.8 2.3625 13.8 1.8C13.8 0.80625 12.9937 0 12 0C11.0063 0 10.2 0.80625 10.2 1.8C10.2 2.3625 10.4625 2.8575 10.8638 3.1875L7.8075 8.535C7.47375 9.12 6.72375 9.315 6.15 8.97L3.43875 7.3425C3.54 7.1175 3.60375 6.86625 3.60375 6.6C3.60375 5.60625 2.7975 4.8 1.80375 4.8C0.810001 4.8 0 5.60625 0 6.6C0 7.59375 0.80625 8.4 1.8 8.4C1.8975 8.4 1.995 8.385 2.08875 8.37L4.8 15.6L19.2 15.6L21.9113 8.37C22.005 8.385 22.1025 8.4 22.2 8.4C23.1938 8.4 24 7.59375 24 6.6C24 5.60625 23.1938 4.8 22.2 4.8Z" fill-rule="nonzero" fill="rgb(65, 105, 225)"/>
</svg>
