<?xml version="1.0" encoding="utf-8" ?>
<svg xmlns="http://www.w3.org/2000/svg" xmlns:xlink="http://www.w3.org/1999/xlink" width="20" height="20" viewBox="0 0 20 20">
	<defs>
		<clipPath id="clipPath5152193723">
			<path transform="matrix(1 0 0 1 0 0)" d="M0 0L20 0L20 20L0 20L0 0Z" fill-rule="nonzero"/>
		</clipPath>
	</defs>
	<g clip-path="url(#clipPath5152193723)">
		<path transform="matrix(1 0 0 1 0 0)" d="M19.5312 10.2266C19.5312 15.7539 15.7461 19.6875 10.1562 19.6875C4.79688 19.6875 0.46875 15.3594 0.46875 10C0.46875 4.64062 4.79688 0.3125 10.1562 0.3125C12.7656 0.3125 14.9609 1.26953 16.6523 2.84766L14.0156 5.38281C10.5664 2.05469 4.15234 4.55469 4.15234 10C4.15234 13.3789 6.85156 16.1172 10.1562 16.1172C13.9922 16.1172 15.4297 13.3672 15.6562 11.9414L10.1562 11.9414L10.1562 8.60938L19.3789 8.60938C19.4688 9.10547 19.5312 9.58203 19.5312 10.2266" fill-rule="nonzero" fill="rgb(55, 65, 81)"/>
	</g>
</svg>
