<?xml version="1.0" encoding="utf-8" ?>
<svg xmlns="http://www.w3.org/2000/svg" xmlns:xlink="http://www.w3.org/1999/xlink" width="20" height="20" viewBox="0 0 20 20">
	<defs>
		<clipPath id="clipPath9299382213">
			<path transform="matrix(1 0 0 1 0 0)" d="M0 0L20 0L20 20L0 20L0 0Z" fill-rule="nonzero"/>
		</clipPath>
	</defs>
	<g clip-path="url(#clipPath9299382213)">
		<path transform="matrix(1 0 0 1 0 0)" d="M12.5 4.41406L12.5 8.125C12.5 8.47017 12.7798 8.75 13.125 8.75C13.4702 8.75 13.75 8.47017 13.75 8.125L13.75 4.41406Q13.75 3.65192 13.4548 2.95454Q13.17 2.28163 12.6512 1.76285Q12.1324 1.24406 11.4595 0.959238Q10.7621 0.664062 10 0.664062Q9.23785 0.664062 8.54048 0.959238Q7.86757 1.24406 7.34878 1.76285Q6.82999 2.28163 6.54518 2.95454Q6.25 3.65191 6.25 4.41406L6.25 8.125C6.25 8.47017 6.52983 8.75 6.875 8.75C7.22017 8.75 7.5 8.47017 7.5 8.125L7.5 4.41406Q7.5 3.90556 7.69631 3.44178Q7.88616 2.99324 8.23267 2.64673Q8.57917 2.30022 9.02771 2.11037Q9.4915 1.91406 10 1.91406Q10.5085 1.91406 10.9723 2.11037Q11.4208 2.30022 11.7673 2.64673Q12.1138 2.99324 12.3037 3.44178Q12.5 3.90556 12.5 4.41406Z" fill-rule="evenodd" fill="rgb(156, 163, 175)"/>
		<path transform="matrix(1 0 0 1 0 0)" d="M5.625 7.5L14.375 7.5Q14.883 7.5 15.3482 7.69688Q15.7968 7.88677 16.1425 8.23249Q16.4882 8.57822 16.6781 9.02684Q16.875 9.49198 16.875 10L16.875 16.875Q16.875 17.383 16.6781 17.8482Q16.4882 18.2968 16.1425 18.6425Q15.7968 18.9882 15.3482 19.1781Q14.883 19.375 14.375 19.375L5.625 19.375Q5.11698 19.375 4.65184 19.1781Q4.20322 18.9882 3.85749 18.6425Q3.51176 18.2968 3.32188 17.8482Q3.125 17.383 3.125 16.875L3.125 10Q3.125 9.49198 3.32188 9.02684Q3.51176 8.57822 3.85749 8.23249Q4.20322 7.88676 4.65184 7.69688Q5.11698 7.5 5.625 7.5ZM5.625 8.75Q5.10775 8.75 4.74138 9.11638Q4.375 9.48275 4.375 10L4.375 16.875Q4.375 17.3922 4.74138 17.7586Q5.10775 18.125 5.625 18.125L14.375 18.125Q14.8922 18.125 15.2586 17.7586Q15.625 17.3922 15.625 16.875L15.625 10Q15.625 9.48275 15.2586 9.11638Q14.8922 8.75 14.375 8.75L5.625 8.75Z" fill-rule="evenodd" fill="rgb(156, 163, 175)"/>
	</g>
</svg>
