<?xml version="1.0" encoding="utf-8" ?>
<svg xmlns="http://www.w3.org/2000/svg" xmlns:xlink="http://www.w3.org/1999/xlink" width="64" height="64" viewBox="0 0 64 64">
	<defs>
		<linearGradient id="linearGradient6482611824" gradientTransform="matrix(45.2548 45.2548 -45.2548 45.2548 32 -13.2548)" gradientUnits="userSpaceOnUse" x1="0" y1="0.5" x2="1" y2="0.5">
			<stop offset="0" stop-color="rgb(96, 165, 250)"/>
			<stop offset="1" stop-color="rgb(129, 140, 248)"/>
		</linearGradient>
	</defs>
	<path transform="matrix(1 0 0 1 0 0)" d="M20 0C8.9543 0 0 8.9543 0 20L0 44C0 55.0457 8.95431 64 20 64L44 64C55.0457 64 64 55.0457 64 44L64 20C64 8.9543 55.0457 0 44 0L20 0Z" fill-rule="nonzero" fill="url(#linearGradient6482611824)"/>
	<path transform="matrix(1 0 0 1 16 16)" d="M12 0C5.37258 0 0 5.37258 0 12L0 20C0 26.6274 5.37258 32 12 32L20 32C26.6274 32 32 26.6274 32 20L32 12C32 5.37258 26.6274 0 20 0L12 0Z" fill-rule="nonzero" fill="rgb(255, 255, 255)" fill-opacity="0.3"/>
</svg>
