<?xml version="1.0" encoding="utf-8" ?>
<svg xmlns="http://www.w3.org/2000/svg" xmlns:xlink="http://www.w3.org/1999/xlink" width="24" height="24" viewBox="0 0 24 24">
	<defs>
		<clipPath id="clipPath5839916823">
			<path transform="matrix(1 0 0 1 0 0)" d="M0 0L24 0L24 24L0 24L0 0Z" fill-rule="nonzero"/>
		</clipPath>
	</defs>
	<g clip-path="url(#clipPath5839916823)">
		<path transform="matrix(1 0 0 1 2.99952 3.75)" d="M13.5436 0.75Q11.9507 0.75 10.6593 2.03223Q10.2404 2.44814 9.90575 2.94831Q9.74389 3.19023 9.6713 3.33541Q9.63826 3.40148 9.59297 3.45984Q9.54768 3.51819 9.49188 3.56659Q9.43608 3.61499 9.3719 3.65157Q9.30773 3.68815 9.23765 3.71151Q9.16757 3.73487 9.09428 3.74411Q9.02099 3.75335 8.94731 3.74811Q8.87363 3.74288 8.80238 3.72337Q8.73114 3.70386 8.66507 3.67082Q8.55621 3.61639 8.47015 3.53033Q8.38409 3.44427 8.32966 3.33541Q8.25707 3.19023 8.09521 2.94831Q7.76056 2.44814 7.34166 2.03223Q6.05022 0.75 4.45735 0.75Q3.70549 0.75 3.02168 1.04903Q2.36172 1.33764 1.84907 1.86561Q1.33697 2.39301 1.05192 3.07615Q0.758291 3.77987 0.750439 4.54566Q0.717927 7.77717 3.15783 10.7517Q4.22064 12.0473 5.80827 13.3745Q7.13722 14.4854 8.99979 15.7496L9.00048 15.7501Q9.00048 15.7501 9.00048 15.7501Q10.8636 14.4854 12.1924 13.3745Q13.78 12.0473 14.8428 10.7517Q17.2827 7.7771 17.2505 4.54544Q17.2427 3.77987 16.949 3.07615Q16.664 2.39301 16.1519 1.86561Q15.6392 1.33764 14.9793 1.04904Q14.2955 0.750001 13.5436 0.750001L13.5436 0.75ZM13.5436 -0.749999Q14.6091 -0.75 15.5803 -0.325299Q16.5102 0.0813457 17.2281 0.820678Q17.9386 1.55246 18.3334 2.49853Q18.7396 3.4721 18.7504 4.53049Q18.7881 8.30707 16.0025 11.703Q14.8503 13.1077 13.1545 14.5253Q11.7681 15.6844 9.84423 16.9903Q9.46235 17.2501 9.00048 17.2501Q8.5386 17.2501 8.15742 16.9907Q6.23276 15.6844 4.84622 14.5254Q3.15036 13.1077 1.99809 11.703Q-0.787481 8.30708 -0.749482 4.53028Q-0.738633 3.4721 -0.332401 2.49853Q0.0623521 1.55247 0.772908 0.820679Q1.49079 0.081346 2.42068 -0.325299Q3.39185 -0.75 4.45735 -0.75Q5.67879 -0.75 6.78358 -0.203498Q7.65099 0.225584 8.39852 0.967774Q8.92385 1.48936 9.3419 2.11419Q9.55639 2.43477 9.6713 2.66459L9.00048 3L8.32966 2.66459Q8.44457 2.43476 8.65905 2.11419Q9.07711 1.48936 9.60244 0.967774Q10.35 0.225584 11.2174 -0.203498Q12.3222 -0.75 13.5436 -0.75L13.5436 -0.749999Z" fill-rule="nonzero" fill="rgb(156, 163, 175)"/>
	</g>
</svg>
