<?xml version="1.0" encoding="utf-8" ?>
<svg xmlns="http://www.w3.org/2000/svg" xmlns:xlink="http://www.w3.org/1999/xlink" width="16.213" height="16.2131" viewBox="0 0 16.213 16.2131">
	<path transform="matrix(1 0 0 1 0 0)" d="M15.9645 14.5855L12.2891 10.9102C12.7315 10.3212 13.0691 9.67722 13.302 8.97832C13.5348 8.27943 13.6508 7.56166 13.65 6.825C13.65 3.06172 10.5883 0 6.825 0C3.06172 0 0 3.06172 0 6.825C0 10.5883 3.06172 13.65 6.825 13.65C7.56166 13.6508 8.27943 13.5348 8.97832 13.302C9.67722 13.0691 10.3212 12.7315 10.9102 12.2891L14.5855 15.9645C14.7787 16.1371 15.0047 16.2198 15.2637 16.2126C15.5227 16.2053 15.7437 16.1101 15.9269 15.9269C16.1101 15.7437 16.2053 15.5227 16.2126 15.2637C16.2198 15.0047 16.1371 14.7787 15.9645 14.5855ZM1.95 6.825C1.95 5.47881 2.42595 4.32976 3.37785 3.37785C4.32976 2.42595 5.4788 1.95 6.825 1.95C8.17119 1.95 9.32024 2.42595 10.2721 3.37785C11.224 4.32976 11.7 5.4788 11.7 6.825C11.7 8.17119 11.224 9.32024 10.2721 10.2721C9.32024 11.224 8.17119 11.7 6.825 11.7C5.47948 11.6984 4.331 11.2219 3.37957 10.2704C2.42814 9.319 1.95161 8.17052 1.95 6.825Z" fill-rule="nonzero" fill="rgb(156, 163, 175)"/>
</svg>
